<svg width="20" height="21" viewBox="0 0 20 21" fill="none" xmlns="http://www.w3.org/2000/svg">
<path fill-rule="evenodd" clip-rule="evenodd" d="M2.54 0.835938H5.92C7.33 0.835938 8.46 1.98594 8.46 3.39694V6.80594C8.46 8.22594 7.33 9.36594 5.92 9.36594H2.54C1.14 9.36594 0 8.22594 0 6.80594V3.39694C0 1.98594 1.14 0.835938 2.54 0.835938ZM2.54 12.3056H5.92C7.33 12.3056 8.46 13.4466 8.46 14.8666V18.2756C8.46 19.6856 7.33 20.8356 5.92 20.8356H2.54C1.14 20.8356 0 19.6856 0 18.2756V14.8666C0 13.4466 1.14 12.3056 2.54 12.3056ZM17.4601 0.835938H14.0801C12.6701 0.835938 11.5401 1.98594 11.5401 3.39694V6.80594C11.5401 8.22594 12.6701 9.36594 14.0801 9.36594H17.4601C18.8601 9.36594 20.0001 8.22594 20.0001 6.80594V3.39694C20.0001 1.98594 18.8601 0.835938 17.4601 0.835938ZM14.0801 12.3056H17.4601C18.8601 12.3056 20.0001 13.4466 20.0001 14.8666V18.2756C20.0001 19.6856 18.8601 20.8356 17.4601 20.8356H14.0801C12.6701 20.8356 11.5401 19.6856 11.5401 18.2756V14.8666C11.5401 13.4466 12.6701 12.3056 14.0801 12.3056Z" fill="#130F26"/>
</svg>
