<svg width="37" height="38" viewBox="0 0 37 38" fill="none" xmlns="http://www.w3.org/2000/svg">
<path d="M34.432 0.507539C29.195 0.927075 23.9653 2.98135 19.4589 6.38103C18.4173 7.16224 17.7952 7.71197 16.5655 8.91995L15.4805 9.99048L14.6125 10.0339C10.3159 10.2509 5.70102 12.2618 2.54727 15.2925C1.9469 15.8712 1.91797 15.9146 1.91797 16.2039C1.91797 16.4354 1.9686 16.5656 2.1205 16.732L2.3158 16.9562L5.41169 17.4047L8.50033 17.8532L8.07357 18.3378C7.58893 18.8875 7.4949 19.1407 7.66126 19.4951C7.8204 19.8206 17.7373 29.7231 18.005 29.8244C18.3377 29.9473 18.5909 29.8461 19.1189 29.3904L19.6036 28.9636L20.0376 31.9799C20.3486 34.1355 20.5077 35.0613 20.5945 35.1915C20.7681 35.4519 21.1587 35.5749 21.4842 35.4664C21.9327 35.3217 23.2275 33.81 24.2835 32.2114C26.0991 29.4699 27.2637 25.9762 27.4228 22.8442L27.4662 21.9762L28.5368 20.8912C30.1426 19.2564 31.0323 18.1714 32.2113 16.392C35.2059 11.9001 36.9998 6.40997 36.9998 1.77338C36.9998 0.992175 36.8696 0.65944 36.5224 0.529239C36.356 0.464139 35.1191 0.449672 34.432 0.507539ZM27.1841 7.29244C28.6814 7.61071 29.846 8.77528 30.1643 10.2726C30.2221 10.5402 30.2728 10.8947 30.2728 11.0538C30.2728 12.4209 29.3686 13.882 28.1606 14.4752C27.6471 14.7283 26.8803 14.9236 26.4029 14.9236C25.043 14.9236 23.5747 14.0122 22.9815 12.8115C22.7284 12.2979 22.5331 11.5312 22.5331 11.0538C22.5331 10.099 22.9815 9.05015 23.6904 8.34128C24.638 7.39371 25.8966 7.01757 27.1841 7.29244Z" fill="#26ABE2"/>
<path d="M6.87351 25.2025C5.99104 25.3327 5.1592 25.7088 4.41416 26.3237C3.43766 27.1193 2.25862 29.6655 0.717913 34.2876C-0.106691 36.7614 -0.135625 36.9133 0.204344 37.2533C0.544312 37.5932 0.703446 37.5643 3.15556 36.7469C7.78491 35.2062 10.3383 34.02 11.134 33.0435C12.747 31.076 12.6819 28.4286 10.9748 26.6275C10.2443 25.8535 9.26775 25.3544 8.16828 25.1952C7.59685 25.1157 7.47388 25.1157 6.87351 25.2025Z" fill="#26ABE2"/>
</svg>
