<svg width="18" height="21" viewBox="0 0 18 21" fill="none" xmlns="http://www.w3.org/2000/svg">
<path fill-rule="evenodd" clip-rule="evenodd" d="M5.92574 15.2262H11.3119C11.7178 15.2262 12.0545 14.8862 12.0545 14.4762C12.0545 14.0662 11.7178 13.7362 11.3119 13.7362H5.92574C5.5198 13.7362 5.18317 14.0662 5.18317 14.4762C5.18317 14.8862 5.5198 15.2262 5.92574 15.2262ZM9.27228 8.73618H5.92574C5.5198 8.73618 5.18317 9.07618 5.18317 9.48618C5.18317 9.89618 5.5198 10.2262 5.92574 10.2262H9.27228C9.67822 10.2262 10.0149 9.89618 10.0149 9.48618C10.0149 9.07618 9.67822 8.73618 9.27228 8.73618ZM16.3381 7.86179C16.5708 7.85911 16.8242 7.85618 17.0545 7.85618C17.302 7.85618 17.5 8.05618 17.5 8.30618V16.3462C17.5 18.8262 15.5099 20.8362 13.0545 20.8362H5.17327C2.59901 20.8362 0.5 18.7262 0.5 16.1262V5.34618C0.5 2.86618 2.5 0.836182 4.96535 0.836182H10.2525C10.5099 0.836182 10.7079 1.04618 10.7079 1.29618V4.51618C10.7079 6.34618 12.203 7.84618 14.0149 7.85618C14.4381 7.85618 14.8112 7.85934 15.1377 7.86211C15.3917 7.86427 15.6175 7.86618 15.8168 7.86618C15.9578 7.86618 16.1405 7.86407 16.3381 7.86179ZM16.6111 6.40218C15.7972 6.40518 14.8378 6.40218 14.1477 6.39518C13.0527 6.39518 12.1507 5.48418 12.1507 4.37818V1.74218C12.1507 1.31118 12.6685 1.09718 12.9646 1.40818C13.5004 1.97094 14.2368 2.74452 14.9699 3.51456C15.7009 4.28251 16.4286 5.04693 16.9507 5.59518C17.2398 5.89818 17.0279 6.40118 16.6111 6.40218Z" fill="#09151B"/>
</svg>
