<svg width="18" height="21" viewBox="0 0 18 21" fill="none" xmlns="http://www.w3.org/2000/svg">
<path fill-rule="evenodd" clip-rule="evenodd" d="M0.5 9.1537C0.5 4.55383 4.34388 0.835938 8.99345 0.835938C13.6561 0.835938 17.5 4.55383 17.5 9.1537C17.5 11.4716 16.657 13.6236 15.2695 15.4475C13.7388 17.4595 11.8522 19.2124 9.72854 20.5884C9.24251 20.9064 8.80387 20.9304 8.27045 20.5884C6.13474 19.2124 4.24809 17.4595 2.7305 15.4475C1.34198 13.6236 0.5 11.4716 0.5 9.1537ZM6.19423 9.41269C6.19423 10.9536 7.45166 12.1656 8.99345 12.1656C10.5362 12.1656 11.8058 10.9536 11.8058 9.41269C11.8058 7.88373 10.5362 6.61277 8.99345 6.61277C7.45166 6.61277 6.19423 7.88373 6.19423 9.41269Z" fill="white"/>
</svg>
