<svg width="20" height="19" viewBox="0 0 20 19" fill="none" xmlns="http://www.w3.org/2000/svg">
<path fill-rule="evenodd" clip-rule="evenodd" d="M12.2124 5.59835C12.2124 8.24211 10.0489 10.3608 7.34933 10.3608C4.6507 10.3608 2.48631 8.24211 2.48631 5.59835C2.48631 2.95459 4.6507 0.835938 7.34933 0.835938C10.0489 0.835938 12.2124 2.95459 12.2124 5.59835ZM0 15.7533C0 13.306 3.38553 12.6937 7.34933 12.6937C11.3347 12.6937 14.6987 13.3271 14.6987 15.7763C14.6987 18.2236 11.3131 18.8359 7.34933 18.8359C3.364 18.8359 0 18.2025 0 15.7533ZM14.1734 5.68469C14.1734 7.031 13.7605 8.28724 13.0364 9.33076C12.9611 9.43808 13.0276 9.58277 13.1587 9.60577C13.3407 9.63548 13.5276 9.65368 13.7184 9.65751C15.6167 9.70638 17.3202 8.50955 17.7908 6.70712C18.4885 4.03269 16.4415 1.63137 13.8339 1.63137C13.5511 1.63137 13.2801 1.66011 13.0159 1.71282C12.9797 1.72048 12.9405 1.73773 12.921 1.76839C12.8955 1.80768 12.9141 1.85847 12.9396 1.892C13.7233 2.9681 14.1734 4.278 14.1734 5.68469ZM17.3173 11.5382C18.5932 11.7826 19.4317 12.2799 19.7791 13.0053C20.0736 13.5994 20.0736 14.2893 19.7791 14.8834C19.2478 16.0065 17.5335 16.3677 16.8672 16.4607C16.7292 16.4798 16.6186 16.3648 16.6333 16.2288C16.9738 13.1164 14.2664 11.6408 13.5658 11.3016C13.5364 11.2853 13.5296 11.2623 13.5325 11.2469C13.5345 11.2374 13.5472 11.222 13.5697 11.2191C15.0854 11.1904 16.7155 11.3945 17.3173 11.5382Z" fill="#ffffff"/>
</svg>
