<svg width="25" height="25" viewBox="0 0 25 25" fill="none" xmlns="http://www.w3.org/2000/svg">
<path d="M21 10.69H18.11C15.74 10.69 13.81 8.76 13.81 6.39V3.5C13.81 2.95 13.36 2.5 12.81 2.5H8.57C5.49 2.5 3 4.5 3 8.07V16.93C3 20.5 5.49 22.5 8.57 22.5H16.43C19.51 22.5 22 20.5 22 16.93V11.69C22 11.14 21.55 10.69 21 10.69Z" fill="#09151B"/>
<path d="M6.91992 19.4996V14.5996H8.66992C8.93592 14.5996 9.17626 14.6661 9.39092 14.7991C9.60792 14.9321 9.77942 15.1106 9.90542 15.3346C10.0314 15.5586 10.0944 15.8048 10.0944 16.0731C10.0944 16.3484 10.0291 16.5981 9.89842 16.8221C9.77009 17.0438 9.59742 17.2211 9.38042 17.3541C9.16342 17.4848 8.92659 17.5501 8.66992 17.5501H7.77392V19.4996H6.91992ZM7.77392 16.6961H8.57892C8.70026 16.6961 8.81109 16.6658 8.91142 16.6051C9.01176 16.5444 9.09109 16.4628 9.14942 16.3601C9.21009 16.2574 9.24042 16.1431 9.24042 16.0171C9.24042 15.8888 9.21009 15.7733 9.14942 15.6706C9.09109 15.5679 9.01176 15.4863 8.91142 15.4256C8.81109 15.3649 8.70026 15.3346 8.57892 15.3346H7.77392V16.6961Z" fill="white"/>
<path d="M10.7344 19.4996V14.5996H12.3584C12.6967 14.5996 13.0129 14.6638 13.3069 14.7921C13.6032 14.9181 13.8634 15.0943 14.0874 15.3206C14.3137 15.5446 14.4899 15.8048 14.6159 16.1011C14.7442 16.3951 14.8084 16.7113 14.8084 17.0496C14.8084 17.3879 14.7442 17.7053 14.6159 18.0016C14.4899 18.2956 14.3137 18.5558 14.0874 18.7821C13.8634 19.0061 13.6032 19.1823 13.3069 19.3106C13.0129 19.4366 12.6967 19.4996 12.3584 19.4996H10.7344ZM11.5884 18.6456H12.3584C12.5754 18.6456 12.7795 18.6048 12.9709 18.5231C13.1645 18.4391 13.3349 18.3248 13.4819 18.1801C13.6289 18.0331 13.7444 17.8639 13.8284 17.6726C13.9124 17.4789 13.9544 17.2713 13.9544 17.0496C13.9544 16.8279 13.9124 16.6214 13.8284 16.4301C13.7444 16.2388 13.6289 16.0696 13.4819 15.9226C13.3349 15.7756 13.1657 15.6613 12.9744 15.5796C12.783 15.4956 12.5777 15.4536 12.3584 15.4536H11.5884V18.6456Z" fill="white"/>
<path d="M15.376 19.4996V14.5996H18.2705V15.4536H16.23V16.4476H17.9345V17.3016H16.23V19.4996H15.376Z" fill="white"/>
</svg>
