<svg width="24" height="25" viewBox="0 0 24 25" fill="none" xmlns="http://www.w3.org/2000/svg">
<path fill-rule="evenodd" clip-rule="evenodd" d="M7.33049 2.83667H16.6695C20.0705 2.83667 21.9905 4.76567 22.0005 8.16667V17.5067C22.0005 20.9067 20.0705 22.8367 16.6695 22.8367H7.33049C3.92949 22.8367 2.00049 20.9067 2.00049 17.5067V8.16667C2.00049 4.76567 3.92949 2.83667 7.33049 2.83667ZM12.0495 18.6967C12.4805 18.6967 12.8395 18.3767 12.8795 17.9467V7.75667C12.9195 7.44667 12.7705 7.13567 12.5005 6.96667C12.2195 6.79667 11.8795 6.79667 11.6105 6.96667C11.3395 7.13567 11.1905 7.44667 11.2195 7.75667V17.9467C11.2705 18.3767 11.6295 18.6967 12.0495 18.6967ZM16.6505 18.6967C17.0705 18.6967 17.4295 18.3767 17.4805 17.9467V14.6667C17.5095 14.3457 17.3605 14.0467 17.0895 13.8767C16.8205 13.7067 16.4805 13.7067 16.2005 13.8767C15.9295 14.0467 15.7805 14.3457 15.8205 14.6667V17.9467C15.8605 18.3767 16.2195 18.6967 16.6505 18.6967ZM8.21949 17.9467C8.17949 18.3767 7.82049 18.6967 7.38949 18.6967C6.95949 18.6967 6.59949 18.3767 6.56049 17.9467V11.0367C6.53049 10.7257 6.67949 10.4167 6.95049 10.2467C7.21949 10.0767 7.56049 10.0767 7.83049 10.2467C8.09949 10.4167 8.25049 10.7257 8.21949 11.0367V17.9467Z" fill="white"/>
</svg>
