<svg width="20" height="21" viewBox="0 0 20 21" fill="none" xmlns="http://www.w3.org/2000/svg">
<path fill-rule="evenodd" clip-rule="evenodd" d="M5.33 0.83667H14.669C18.07 0.83667 19.99 2.76567 20 6.16667V15.5067C20 18.9067 18.07 20.8367 14.669 20.8367H5.33C1.929 20.8367 0 18.9067 0 15.5067V6.16667C0 2.76567 1.929 0.83667 5.33 0.83667ZM10.049 16.6967C10.48 16.6967 10.839 16.3767 10.879 15.9467V5.75667C10.919 5.44667 10.77 5.13567 10.5 4.96667C10.219 4.79667 9.879 4.79667 9.61 4.96667C9.339 5.13567 9.19 5.44667 9.219 5.75667V15.9467C9.27 16.3767 9.629 16.6967 10.049 16.6967ZM14.65 16.6967C15.07 16.6967 15.429 16.3767 15.48 15.9467V12.6667C15.509 12.3457 15.36 12.0467 15.089 11.8767C14.82 11.7067 14.48 11.7067 14.2 11.8767C13.929 12.0467 13.78 12.3457 13.82 12.6667V15.9467C13.86 16.3767 14.219 16.6967 14.65 16.6967ZM6.219 15.9467C6.179 16.3767 5.82 16.6967 5.389 16.6967C4.959 16.6967 4.599 16.3767 4.56 15.9467V9.03667C4.53 8.72567 4.679 8.41667 4.95 8.24667C5.219 8.07667 5.56 8.07667 5.83 8.24667C6.099 8.41667 6.25 8.72567 6.219 9.03667V15.9467Z" fill="#09151B"/>
</svg>
