<svg width="36" height="46" viewBox="0 0 36 46" fill="none" xmlns="http://www.w3.org/2000/svg">
<path d="M16.0005 0.808142L14.3043 1.61582H12.4557C10.8672 1.61582 10.5531 1.64274 10.2839 1.77735C10.0775 1.87607 9.57494 2.42349 8.82111 3.36578L7.67242 4.80165L6.03912 5.59138C5.1417 6.03111 4.33403 6.4529 4.23531 6.53366C3.94814 6.80289 3.83147 7.13493 3.42764 8.8849C3.20328 9.82718 2.9879 10.6438 2.94303 10.7067C2.89816 10.7695 2.36868 11.4336 1.77639 12.1784C0.995635 13.1566 0.672564 13.6412 0.627694 13.8835C0.582823 14.1258 0.672564 14.6912 0.977686 16.0194L1.38152 17.8232L0.98666 19.5552C0.77128 20.5154 0.591797 21.4039 0.591797 21.5295C0.591797 21.9154 0.843074 22.3013 1.96485 23.7102L3.0238 25.0294L3.45456 26.8691C3.81353 28.4486 3.91224 28.7537 4.12762 28.9781C4.26223 29.1217 5.08786 29.5793 6.00322 30.028L7.63652 30.8088L8.75829 32.2088C9.37751 32.9716 10.0147 33.6985 10.1852 33.8062C10.4813 34.0036 10.5621 34.0126 12.3928 34.0126H14.2954L15.9646 34.8203C17.2479 35.4395 17.7325 35.6279 18.0107 35.6279C18.2978 35.6279 18.7735 35.4395 20.0478 34.8203L21.708 34.0126H23.6106C25.4413 34.0126 25.522 34.0036 25.8182 33.8062C25.9887 33.6985 26.6259 32.9805 27.2451 32.2177L28.3669 30.8267L30.0002 30.028C30.8976 29.5883 31.7412 29.1127 31.8758 28.9781C32.0911 28.7537 32.1899 28.4396 32.5488 26.8781L32.9706 25.0294L34.0296 23.7102C35.1603 22.3013 35.4116 21.9154 35.4116 21.5295C35.4116 21.4039 35.2321 20.5154 35.0167 19.5552L34.6219 17.8232L35.0257 16.0194C35.3308 14.6912 35.4206 14.1258 35.3757 13.8835C35.3308 13.6412 35.0078 13.1566 34.227 12.1784C33.6347 11.4336 33.1052 10.7695 33.0604 10.7067C33.0155 10.6438 32.8001 9.82718 32.5757 8.8849C32.1719 7.13493 32.0552 6.80289 31.7591 6.53366C31.6694 6.4529 30.8617 6.02214 29.9643 5.59138L28.331 4.80165L27.1823 3.36578C26.4284 2.42349 25.9259 1.87607 25.7195 1.77735C25.4503 1.64274 25.1362 1.61582 23.5567 1.61582H21.708L20.0119 0.808142C18.8722 0.269691 18.2171 0.000466153 18.0017 0.000466153C17.7953 0.000466153 17.1312 0.269691 16.0005 0.808142ZM20.0747 5.43881C28.7079 6.91058 33.2219 16.495 28.8604 24.1051C27.6669 26.1871 25.7554 27.973 23.5298 29.0947C20.7029 30.5127 17.1312 30.755 14.0531 29.7319C8.69548 27.955 5.16863 22.7949 5.47375 17.186C5.77887 11.3169 10.0954 6.4529 15.8928 5.43881C16.8979 5.25933 19.0337 5.25933 20.0747 5.43881Z" fill="#26ABE2"/>
<path d="M16.0525 6.86449C12.059 7.60038 8.74754 10.4631 7.45526 14.3041C7.0245 15.5784 6.93476 16.1976 6.92578 17.7681C6.92578 18.8719 6.96168 19.4373 7.08732 19.9937C7.545 22.1385 8.48729 23.9244 9.9411 25.459C12.3282 27.9448 15.6307 29.2012 18.9601 28.8871C20.5934 28.7345 21.6165 28.4384 23.0613 27.7025C25.628 26.3923 27.6023 24.1039 28.5535 21.3398C28.9663 20.1283 29.074 19.3476 29.074 17.7681C29.0651 16.1887 28.9753 15.5784 28.5356 14.2861C27.2613 10.4721 23.878 7.5555 19.9383 6.86449C18.9781 6.70296 16.9679 6.70296 16.0525 6.86449ZM22.3255 15.0938L23.2857 16.1079L20.6204 18.7732C18.314 21.0796 17.9102 21.4385 17.614 21.4924C16.9589 21.618 16.7615 21.5103 14.7602 19.9129C13.7103 19.0694 12.8308 18.3784 12.8218 18.3604C12.7949 18.3335 14.5 16.1976 14.5807 16.1707C14.6166 16.1617 15.2 16.5925 15.882 17.1399C16.564 17.6784 17.1563 18.1271 17.1833 18.1271C17.2102 18.1271 18.1435 17.2207 19.2563 16.1079C20.3691 14.9951 21.2934 14.0887 21.3204 14.0887C21.3473 14.0887 21.796 14.5464 22.3255 15.0938Z" fill="#26ABE2"/>
<path d="M2.75252 35.7065C0.760251 39.7449 0.5 40.3103 0.5 40.6961C0.5 41.1807 0.724354 41.6115 1.11024 41.8718C1.32562 42.0243 1.60382 42.0512 3.68583 42.0871L6.01911 42.132L7.30242 43.8371C8.72931 45.7396 9.02546 45.9909 9.71647 45.9191C9.92288 45.9012 10.237 45.7845 10.4254 45.6768C10.7306 45.4883 10.9459 45.0935 13.0279 40.8577C14.2843 38.318 15.3074 36.2091 15.3074 36.1732C15.3074 36.1283 15.0023 35.9488 14.6253 35.7693L13.9433 35.4462H12.2203C9.58186 35.4462 9.45622 35.3834 7.81395 33.3194C6.69218 31.9104 6.67423 31.8925 5.47169 31.354L5.01401 31.1476L2.75252 35.7065Z" fill="#26ABE2"/>
<path d="M30.1162 31.5604L29.2637 31.9643L28.1868 33.3104C26.5445 35.3834 26.4189 35.4462 23.7715 35.4462H22.0395L21.3664 35.7783C20.9985 35.9668 20.6934 36.1462 20.6934 36.1821C20.6934 36.218 21.7164 38.327 22.9728 40.8577C25.0548 45.0935 25.2702 45.4794 25.5753 45.6768C25.7638 45.7845 26.0779 45.9012 26.2843 45.9191C26.9753 45.9909 27.2714 45.7396 28.6983 43.8371L29.9816 42.132L32.3149 42.0871C34.3969 42.0512 34.6751 42.0243 34.8905 41.8718C35.2854 41.6115 35.5007 41.1807 35.5007 40.6872C35.5007 40.2923 35.2495 39.7539 33.2303 35.7065L30.9688 31.1566L30.1162 31.5604Z" fill="#26ABE2"/>
</svg>
