<svg width="36" height="42" viewBox="0 0 36 42" fill="none" xmlns="http://www.w3.org/2000/svg">
<path d="M17.0936 0.584303C16.5795 0.801189 16.3466 0.961846 15.5915 1.65267C14.9328 2.25513 13.9608 2.97808 13.1817 3.46005C10.8521 4.88989 8.42623 5.62891 5.10868 5.93416C4.44196 5.99842 3.87163 6.09481 3.52622 6.21531C2.12851 6.69728 1.07621 7.86203 0.690633 9.34811C0.586206 9.73368 0.554075 10.5209 0.513911 13.1637C0.449649 17.5255 0.602272 20.1442 1.09227 23.0682C2.16064 29.4623 5.08458 34.3221 9.96854 37.8003C12.3382 39.4872 16.7322 41.5195 18.0013 41.5195C18.7243 41.5195 20.6522 40.7885 22.7809 39.7121C25.022 38.5795 26.5643 37.5272 28.2593 35.9849C31.0627 33.4385 33.1673 29.9201 34.2598 25.96C35.2237 22.4657 35.5691 18.8268 35.4888 13.0432C35.4486 10.5048 35.4165 9.72565 35.3121 9.34811C34.9265 7.86203 33.8742 6.69728 32.4765 6.21531C32.1311 6.09481 31.5607 5.99842 30.894 5.93416C26.3715 5.52448 23.3994 4.28743 20.2505 1.50808C19.3589 0.720861 18.8127 0.447745 18.0817 0.415614C17.672 0.391516 17.4632 0.43168 17.0936 0.584303ZM19.5276 10.8422C23.4717 11.3884 26.8133 14.3686 27.8737 18.2645C28.3316 19.9434 28.3396 21.8954 27.9058 23.526C26.9499 27.1408 24.1866 29.9041 20.5719 30.86C18.9974 31.2857 17.0053 31.2857 15.4308 30.86C11.8161 29.9041 9.05279 27.1408 8.09689 23.526C7.67115 21.9516 7.67115 19.9595 8.09689 18.385C9.24558 14.0473 13.013 10.9707 17.4792 10.7297C18.0254 10.6976 18.8046 10.7458 19.5276 10.8422Z" fill="#26ABE2"/>
<path d="M17.5994 13.1481C15.6314 13.2606 13.9846 13.9835 12.5628 15.3571C10.9964 16.8673 10.2012 18.755 10.2012 20.956C10.2012 23.157 10.9964 25.0447 12.5628 26.5549C14.1051 28.049 15.8643 28.7559 18.001 28.7559C20.1378 28.7559 21.897 28.049 23.4393 26.5549C25.0057 25.0447 25.8009 23.149 25.8009 20.956C25.8009 18.763 24.9976 16.8593 23.4393 15.3571C21.8327 13.8148 19.7442 13.0196 17.5994 13.1481ZM22.3388 17.5661C22.9011 17.8473 23.1581 18.6184 22.8689 19.1727C22.8047 19.2932 21.3989 20.7311 19.7522 22.3778C16.5551 25.5508 16.5792 25.5347 15.9286 25.4142C15.6876 25.374 15.4064 25.1331 14.3622 24.1049C13.6633 23.406 13.0368 22.7473 12.9725 22.6268C12.6592 22.0244 12.9645 21.2452 13.6151 20.9962C14.2336 20.7552 14.4666 20.8596 15.3502 21.7271C15.7759 22.1449 16.1535 22.4822 16.2017 22.4822C16.2418 22.4822 17.3584 21.3978 18.6838 20.0644C20.0092 18.7309 21.2061 17.5983 21.3347 17.534C21.664 17.3894 22.0014 17.3975 22.3388 17.5661Z" fill="#26ABE2"/>
</svg>
