<svg width="20" height="21" viewBox="0 0 20 21" fill="none" xmlns="http://www.w3.org/2000/svg">
<path fill-rule="evenodd" clip-rule="evenodd" d="M18.4023 12.4162C18.76 12.6062 19.036 12.9062 19.2301 13.2062C19.6083 13.8262 19.5776 14.5862 19.2097 15.2562L18.4943 16.4562C18.1162 17.0962 17.411 17.4962 16.6855 17.4962C16.3278 17.4962 15.9292 17.3962 15.6022 17.1962C15.3365 17.0262 15.0299 16.9662 14.7029 16.9662C13.6911 16.9662 12.8429 17.7962 12.8122 18.7862C12.8122 19.9362 11.872 20.8362 10.6968 20.8362H9.30692C8.12145 20.8362 7.18125 19.9362 7.18125 18.7862C7.16081 17.7962 6.31259 16.9662 5.30085 16.9662C4.96361 16.9662 4.65702 17.0262 4.40153 17.1962C4.0745 17.3962 3.66572 17.4962 3.31825 17.4962C2.58245 17.4962 1.87729 17.0962 1.49917 16.4562L0.79402 15.2562C0.415896 14.6062 0.395456 13.8262 0.773581 13.2062C0.937094 12.9062 1.24368 12.6062 1.59115 12.4162C1.87729 12.2762 2.06125 12.0462 2.23498 11.7762C2.74596 10.9162 2.43937 9.78618 1.57071 9.27618C0.55897 8.70618 0.231943 7.43618 0.814459 6.44618L1.49917 5.26618C2.09191 4.27618 3.35913 3.92618 4.38109 4.50618C5.27019 4.98618 6.425 4.66618 6.9462 3.81618C7.10972 3.53618 7.20169 3.23618 7.18125 2.93618C7.16081 2.54618 7.27323 2.17618 7.4674 1.87618C7.84553 1.25618 8.53024 0.856182 9.27627 0.836182H10.7172C11.4735 0.836182 12.1582 1.25618 12.5363 1.87618C12.7203 2.17618 12.8429 2.54618 12.8122 2.93618C12.7918 3.23618 12.8838 3.53618 13.0473 3.81618C13.5685 4.66618 14.7233 4.98618 15.6226 4.50618C16.6344 3.92618 17.9118 4.27618 18.4943 5.26618L19.179 6.44618C19.7718 7.43618 19.4447 8.70618 18.4228 9.27618C17.5541 9.78618 17.2475 10.9162 17.7687 11.7762C17.9322 12.0462 18.1162 12.2762 18.4023 12.4162ZM7.10972 10.8462C7.10972 12.4162 8.4076 13.6662 10.0121 13.6662C11.6165 13.6662 12.8838 12.4162 12.8838 10.8462C12.8838 9.27618 11.6165 8.01618 10.0121 8.01618C8.4076 8.01618 7.10972 9.27618 7.10972 10.8462Z" fill="#09151B"/>
</svg>
