<svg width="20" height="21" viewBox="0 0 20 21" fill="none" xmlns="http://www.w3.org/2000/svg">
<path fill-rule="evenodd" clip-rule="evenodd" d="M5.66618 20.8359H14.3328C17.7231 20.8359 20 18.4578 20 14.9192V6.75266C20 3.21405 17.7231 0.835938 14.3338 0.835938H5.66618C2.2769 0.835938 0 3.21405 0 6.75266V14.9192C0 18.4578 2.2769 20.8359 5.66618 20.8359ZM6.49886 9.83594C5.12021 9.83594 4 8.71421 4 7.33594C4 5.95767 5.12021 4.83594 6.49886 4.83594C7.8765 4.83594 8.99772 5.95767 8.99772 7.33594C8.99772 8.71421 7.8765 9.83594 6.49886 9.83594ZM17.8208 13.7699C18.1557 14.6285 17.9817 15.6605 17.6237 16.5109C17.1994 17.5222 16.3869 18.288 15.3632 18.6223C14.9087 18.7709 14.432 18.8359 13.9564 18.8359H5.52864C4.68999 18.8359 3.94788 18.6347 3.3395 18.2601C2.95839 18.0248 2.89102 17.482 3.17358 17.1301C3.6462 16.5418 4.11279 15.9515 4.5834 15.3561C5.48038 14.2167 6.08473 13.8865 6.75645 14.1765C7.02896 14.2962 7.30248 14.4758 7.58404 14.6657C8.3342 15.1755 9.37699 15.8762 10.7506 15.1156C11.6906 14.5891 12.2358 13.6861 12.7106 12.8997L12.7185 12.8865C12.7522 12.8313 12.7855 12.7762 12.8187 12.7212C12.9783 12.4571 13.1357 12.1967 13.3138 11.9567C13.5371 11.6564 14.3646 10.7173 15.4366 11.386C16.1194 11.807 16.6936 12.3767 17.308 12.9866C17.5423 13.2198 17.7092 13.4851 17.8208 13.7699Z" fill="white"/>
</svg>
