<svg width="24" height="25" viewBox="0 0 24 25" fill="none" xmlns="http://www.w3.org/2000/svg">
<path d="M17.53 8.60618C17.46 8.59618 17.39 8.59618 17.32 8.60618C15.77 8.55618 14.54 7.28618 14.54 5.72618C14.54 4.13618 15.83 2.83618 17.43 2.83618C19.02 2.83618 20.32 4.12618 20.32 5.72618C20.31 7.28618 19.08 8.55618 17.53 8.60618Z" fill="white"/>
<path d="M20.7901 15.5361C19.6701 16.2861 18.1001 16.5661 16.6501 16.3761C17.0301 15.5561 17.2301 14.6461 17.2401 13.6861C17.2401 12.6861 17.0201 11.7361 16.6001 10.9061C18.0801 10.7061 19.6501 10.9861 20.7801 11.7361C22.3601 12.7761 22.3601 14.4861 20.7901 15.5361Z" fill="white"/>
<path d="M6.44016 8.60618C6.51016 8.59618 6.58016 8.59618 6.65016 8.60618C8.20016 8.55618 9.43016 7.28618 9.43016 5.72618C9.43016 4.12618 8.14016 2.83618 6.54016 2.83618C4.95016 2.83618 3.66016 4.12618 3.66016 5.72618C3.66016 7.28618 4.89016 8.55618 6.44016 8.60618Z" fill="white"/>
<path d="M6.55012 13.6863C6.55012 14.6563 6.76012 15.5763 7.14012 16.4063C5.73012 16.5563 4.26012 16.2563 3.18012 15.5463C1.60012 14.4963 1.60012 12.7863 3.18012 11.7363C4.25012 11.0163 5.76012 10.7263 7.18012 10.8863C6.77012 11.7263 6.55012 12.6763 6.55012 13.6863Z" fill="white"/>
<path d="M12.1198 16.7062C12.0398 16.6962 11.9498 16.6962 11.8598 16.7062C10.0198 16.6462 8.5498 15.1362 8.5498 13.2762C8.5598 11.3762 10.0898 9.83618 11.9998 9.83618C13.8998 9.83618 15.4398 11.3762 15.4398 13.2762C15.4298 15.1362 13.9698 16.6462 12.1198 16.7062Z" fill="white"/>
<path d="M8.8698 18.7761C7.3598 19.7861 7.3598 21.4461 8.8698 22.4461C10.5898 23.5961 13.4098 23.5961 15.1298 22.4461C16.6398 21.4361 16.6398 19.7761 15.1298 18.7761C13.4198 17.6261 10.5998 17.6261 8.8698 18.7761Z" fill="white"/>
</svg>
