<svg width="20" height="20" viewBox="0 0 20 20" fill="none" xmlns="http://www.w3.org/2000/svg">
<path d="M15.9184 12.1562C15.6594 12.4072 15.5404 12.7702 15.5994 13.1262L16.4884 18.0462C16.5634 18.4632 16.3874 18.8852 16.0384 19.1262C15.6964 19.3762 15.2414 19.4062 14.8684 19.2062L10.4394 16.8962C10.2854 16.8142 10.1144 16.7702 9.93939 16.7652H9.66839C9.57439 16.7792 9.48239 16.8092 9.39839 16.8552L4.96839 19.1762C4.74939 19.2862 4.50139 19.3252 4.25839 19.2862C3.66639 19.1742 3.27139 18.6102 3.36839 18.0152L4.25839 13.0952C4.31739 12.7362 4.19839 12.3712 3.93939 12.1162L0.328388 8.61618C0.0263875 8.32318 -0.0786125 7.88318 0.0593875 7.48618C0.193388 7.09018 0.535388 6.80118 0.948388 6.73618L5.91839 6.01518C6.29639 5.97618 6.62839 5.74618 6.79839 5.40618L8.98839 0.916182C9.04039 0.816182 9.10739 0.724182 9.18839 0.646182L9.27839 0.576182C9.32539 0.524182 9.37939 0.481182 9.43939 0.446182L9.54839 0.406182L9.71839 0.336182H10.1394C10.5154 0.375182 10.8464 0.600182 11.0194 0.936182L13.2384 5.40618C13.3984 5.73318 13.7094 5.96018 14.0684 6.01518L19.0384 6.73618C19.4584 6.79618 19.8094 7.08618 19.9484 7.48618C20.0794 7.88718 19.9664 8.32718 19.6584 8.61618L15.9184 12.1562Z" fill="white"/>
</svg>
