<svg width="70" height="71" viewBox="0 0 70 71" fill="none" xmlns="http://www.w3.org/2000/svg">
<path d="M35.6371 63.2565C29.7766 63.2565 24.3073 61.4899 19.7383 58.4837L8.62896 62.0331L12.2301 51.2982C8.7651 46.5417 6.72723 40.6817 6.72723 34.3629C6.72723 18.43 19.6874 5.4698 35.6203 5.4698C51.5532 5.4698 64.5134 18.43 64.5134 34.3629C64.5134 50.2953 51.5532 63.256 35.6203 63.256H35.6371V63.2565ZM35.6371 0C16.663 0 1.27421 15.3902 1.27421 34.3634C1.27421 40.8519 3.07478 46.9329 6.1999 52.1136L0 70.5436L19.0249 64.4458C24.11 67.2577 29.8264 68.7306 35.6371 68.7263C54.6107 68.7263 70 53.337 70 34.3634C69.9995 15.3902 54.6107 0 35.6371 0Z" fill="#FEFEFE"/>
<path d="M35.637 5.46973C19.7041 5.46973 6.7439 18.4299 6.7439 34.3628C6.7439 40.6816 8.78225 46.5416 12.2473 51.2981L8.6461 62.033L19.7549 58.4836C24.324 61.5071 29.7765 63.2564 35.6538 63.2564C51.5867 63.2564 64.5469 50.2957 64.5469 34.3633C64.5469 18.4304 51.5867 5.47021 35.6538 5.47021H35.637V5.46973Z" fill="url(#paint0_linear_6456_5339)"/>
<path d="M27.5685 20.1462C27.0081 18.8044 26.5834 18.7536 25.7344 18.7191C25.412 18.6983 25.0891 18.6871 24.7661 18.6855C23.6615 18.6855 22.5067 19.0082 21.8102 19.7215C20.9612 20.5878 18.8547 22.6088 18.8547 26.7536C18.8547 30.8984 21.8782 34.907 22.2857 35.4679C22.7104 36.0278 28.1802 44.6568 36.6731 48.1736C43.3145 50.9252 45.2852 50.6702 46.7967 50.3476C49.0048 49.872 51.7737 48.2407 52.4703 46.2709C53.1668 44.3001 53.1668 42.6184 52.9626 42.2618C52.7589 41.9051 52.198 41.7018 51.349 41.2766C50.5 40.8519 46.372 38.8135 45.5906 38.5417C44.826 38.2531 44.0959 38.3552 43.5187 39.1707C42.7033 40.3087 41.9051 41.4641 41.2593 42.1601C40.7498 42.7038 39.9171 42.7718 39.221 42.4828C38.2867 42.0925 35.6711 41.1745 32.4434 38.304C29.9463 36.0791 28.2478 33.3107 27.7555 32.4785C27.2627 31.6295 27.7047 31.1362 28.0949 30.6779C28.5196 30.151 28.9271 29.7776 29.3519 29.2848C29.7766 28.7925 30.0144 28.5374 30.2862 27.9598C30.5753 27.3994 30.371 26.8217 30.1673 26.397C29.9636 25.9722 28.2651 21.8274 27.5685 20.1462Z" fill="#FEFEFE"/>
<defs>
<linearGradient id="paint0_linear_6456_5339" x1="-210.439" y1="-91.3338" x2="-210.439" y2="-89.2137" gradientUnits="userSpaceOnUse">
<stop stop-color="#6EBF61"/>
<stop offset="0.231" stop-color="#50A557"/>
<stop offset="0.522" stop-color="#2A904F"/>
<stop offset="0.812" stop-color="#50A557"/>
<stop offset="1" stop-color="#6EBF63"/>
</linearGradient>
</defs>
</svg>
